<svg width="16" height="16" viewBox="0 0 16 16" fill="none" xmlns="http://www.w3.org/2000/svg">
<path d="M0.000793457 11.899C0.160186 11.5874 0.354388 11.3171 0.764777 11.4316C1.17791 11.5471 1.19074 11.8834 1.18799 12.2326C1.18158 13.0766 1.18616 13.9206 1.18616 14.8159C2.14251 14.8159 3.06131 14.8159 3.9801 14.8159C4.28881 14.8159 4.55721 14.9534 4.55905 15.2631C4.55905 15.4748 4.38133 15.6957 4.25767 15.8964C4.22011 15.9578 4.09644 15.967 4.01308 15.9999H0.000793457V11.899Z" fill="white"/>
<path d="M0.000916047 0.598757C0.109926 0.133218 0.418634 -0.00790978 0.872993 0.000337951C1.85866 0.0186662 2.84524 0.00308719 3.83183 0.00766927C4.34481 0.0104185 4.59673 0.207448 4.59215 0.582261C4.58756 0.952493 4.32832 1.14402 3.819 1.14494C2.95792 1.14677 2.09592 1.14494 1.18537 1.14494C1.18537 2.02745 1.18079 2.87147 1.1872 3.7164C1.18995 4.08388 1.1762 4.44312 0.727342 4.53384C0.288555 4.62273 0.110842 4.32948 0 3.97025V0.598757H0.000916047Z" fill="white"/>
<path d="M12.0331 16C11.8499 15.8588 11.5915 15.7553 11.4981 15.5693C11.3066 15.1844 11.6172 14.8224 12.11 14.8178C13.0032 14.8096 13.8972 14.8151 14.8582 14.8151C14.8582 14.333 14.8582 13.8693 14.8582 13.4065C14.8582 12.9217 14.8463 12.436 14.8655 11.9513C14.8792 11.6149 15.0844 11.4188 15.4215 11.4124C15.7366 11.406 15.9702 11.5801 15.9757 11.8963C15.995 13.0784 15.9913 14.2606 15.9812 15.4419C15.9785 15.7984 15.6753 15.8937 15.405 16H12.0322H12.0331Z" fill="white"/>
<path d="M4.63414 8.54219C3.7016 8.54219 2.80662 8.54494 1.91164 8.54127C1.43713 8.53852 1.18705 8.33691 1.18888 7.97676C1.19163 7.61844 1.4408 7.42233 1.91897 7.4205C2.81395 7.41683 3.70893 7.41958 4.62956 7.41958C4.98865 5.91116 5.91111 4.96359 7.46014 4.59427C7.46014 3.80707 7.46014 3.02262 7.46014 2.23909C7.46014 2.0723 7.45831 1.9046 7.46289 1.73781C7.47388 1.37582 7.66534 1.1568 8.02351 1.15772C8.3826 1.15863 8.57772 1.38132 8.58047 1.74239C8.58688 2.48652 8.58322 3.22973 8.58413 3.97386C8.58413 4.16997 8.58413 4.367 8.58413 4.59061C10.091 4.95076 11.0391 5.87176 11.4065 7.41958C12.197 7.41958 12.9812 7.41958 13.7653 7.41958C13.932 7.41958 14.0997 7.41775 14.2664 7.42233C14.6291 7.43333 14.849 7.62486 14.8472 7.98318C14.8462 8.34149 14.6236 8.53669 14.2618 8.53944C13.518 8.54585 12.7741 8.54219 12.0294 8.5431C11.8324 8.5431 11.6364 8.5431 11.412 8.5431C11.0501 10.0469 10.1341 11.0009 8.58413 11.362C8.58413 12.1565 8.58413 12.9401 8.58413 13.7245C8.58413 13.8913 8.58688 14.059 8.58139 14.2258C8.56856 14.5878 8.37619 14.8068 8.01802 14.805C7.65984 14.8031 7.46564 14.5804 7.46381 14.2185C7.45831 13.4597 7.46106 12.7009 7.46014 11.9412C7.46014 11.7597 7.46014 11.5783 7.46014 11.3702C5.95233 11.011 5.00331 10.09 4.63414 8.5431V8.54219ZM10.299 7.98409C10.3008 6.72494 9.27392 5.70039 8.01435 5.70405C6.77311 5.70772 5.75721 6.71394 5.74439 7.95293C5.73248 9.21484 6.74746 10.2495 8.00519 10.2568C9.26384 10.2641 10.2971 9.2405 10.2981 7.98409H10.299Z" fill="white"/>
<path d="M14.8582 1.14582C13.9284 1.14582 13.0645 1.14765 12.2007 1.14582C11.7042 1.14398 11.4395 0.934125 11.4486 0.561145C11.4569 0.203743 11.7033 0.0112959 12.187 0.00946307C13.2193 0.00396458 14.2517 0.00213175 15.2841 0.0103795C15.8136 0.0149616 15.9913 0.195495 15.995 0.732514C16.0032 1.7644 16.0014 2.79628 15.995 3.82908C15.9922 4.30653 15.7898 4.55305 15.4288 4.55396C15.0679 4.55488 14.8609 4.30103 14.8582 3.83549C14.8545 2.95757 14.8572 2.08056 14.8572 1.14765L14.8582 1.14582Z" fill="white"/>
</svg>
