<svg width="15" height="15" viewBox="0 0 15 15" fill="none" xmlns="http://www.w3.org/2000/svg">
<path d="M7.5 0C3.3612 0 0 3.3651 0 7.49749C0 11.6299 3.36622 15 7.5 15C11.6338 15 15 11.6349 15 7.50251C15 3.37011 11.6388 0 7.5 0ZM13.0836 4.59378H10.6856C10.3746 3.47041 9.87793 2.41224 9.22074 1.44433C10.9013 1.92076 12.291 3.07924 13.0836 4.59378ZM13.796 7.50251C13.796 8.09428 13.7157 8.666 13.5602 9.20762H10.9465C11.0368 8.64594 11.0819 8.07422 11.0819 7.49749C11.0819 6.92578 11.0368 6.35406 10.9515 5.79739H13.5652C13.7157 6.33902 13.796 6.91073 13.796 7.50251ZM5.6087 10.4112H9.42642C9.02508 11.67 8.36789 12.8134 7.52007 13.7864C6.66722 12.8134 6.01003 11.665 5.6087 10.4112ZM5.30769 9.20762C5.20736 8.65095 5.15217 8.07924 5.15217 7.49749C5.15217 6.91575 5.20234 6.34905 5.30268 5.79739H9.72742C9.82776 6.34905 9.87793 6.91575 9.87793 7.49749C9.87793 8.07924 9.82274 8.65095 9.72241 9.20762H5.30769ZM1.20401 7.50251C1.20401 6.91073 1.28428 6.34403 1.4398 5.80241H4.08361C3.99833 6.35908 3.95318 6.92578 3.95318 7.50251C3.95318 8.07924 3.99833 8.65095 4.08863 9.21264H1.44482C1.28428 8.666 1.20401 8.08927 1.20401 7.50251ZM7.51505 1.20863C8.36789 2.18154 9.02508 3.33501 9.42642 4.59378H5.59866C6.00502 3.33501 6.66221 2.18154 7.51505 1.20863ZM5.81438 1.4343C5.15217 2.40221 4.65552 3.47041 4.34448 4.59378H1.91639C2.71405 3.06921 4.12375 1.90572 5.81438 1.4343ZM1.91639 10.4112H4.34448C4.66054 11.5346 5.15719 12.6028 5.8194 13.5707C4.12876 13.0993 2.71906 11.9408 1.91639 10.4112ZM9.21572 13.5607C9.87793 12.5928 10.3696 11.5346 10.6856 10.4112H13.0836C12.291 11.9258 10.8963 13.0843 9.21572 13.5607Z" fill="white"/>
</svg>
