<svg width="12" height="16" viewBox="0 0 12 16" fill="none" xmlns="http://www.w3.org/2000/svg">
<path d="M9.38521 4.95349H3.71206V3.48837C3.71206 2.32558 4.64591 1.39535 5.81323 1.39535H6.07004C7.23735 1.39535 8.17121 2.32558 8.17121 3.48837V3.72093C8.17121 3.7907 8.2179 3.83721 8.28794 3.83721H9.45525C9.52529 3.83721 9.57198 3.7907 9.57198 3.72093V3.48837C9.57198 1.55814 8.00778 0 6.07004 0H5.81323C3.87549 0 2.31128 1.55814 2.31128 3.48837V4.95349C1.00389 5.09302 0 6.18605 0 7.51163V13.4186C0 14.8372 1.16732 16 2.59144 16H9.40856C10.8327 16 12 14.8372 12 13.4186V7.53488C11.9767 6.11628 10.8327 4.95349 9.38521 4.95349ZM10.5759 13.4651C10.5759 14.1163 10.0389 14.6512 9.38521 14.6512H2.59144C1.93774 14.6512 1.40078 14.1163 1.40078 13.4651V7.53488C1.40078 6.88372 1.93774 6.34884 2.59144 6.34884H9.40856C10.0623 6.34884 10.5992 6.88372 10.5992 7.53488V13.4651H10.5759Z" fill="#231F20"/>
</svg>
