<svg width="34" height="34" viewBox="0 0 34 34" fill="none" xmlns="http://www.w3.org/2000/svg">
<circle cx="17" cy="12" r="4" stroke="#2E3823" stroke-width="2"/>
<mask id="path-2-outside-1_2021_127" maskUnits="userSpaceOnUse" x="6.40234" y="17.5371" width="21" height="9" fill="black">
<rect fill="white" x="6.40234" y="17.5371" width="21" height="9"/>
<path fill-rule="evenodd" clip-rule="evenodd" d="M25.6184 25.7994C24.6818 22.2402 21.2347 19.5371 17.0261 19.5371C12.8175 19.5371 9.37035 22.2402 8.43377 25.7994H7.40234C8.35707 21.6484 12.3032 18.5371 17.0261 18.5371C21.749 18.5371 25.6951 21.6484 26.6498 25.7994H25.6184Z"/>
</mask>
<path fill-rule="evenodd" clip-rule="evenodd" d="M25.6184 25.7994C24.6818 22.2402 21.2347 19.5371 17.0261 19.5371C12.8175 19.5371 9.37035 22.2402 8.43377 25.7994H7.40234C8.35707 21.6484 12.3032 18.5371 17.0261 18.5371C21.749 18.5371 25.6951 21.6484 26.6498 25.7994H25.6184Z" fill="#2E3823"/>
<path d="M25.6184 25.7994L25.1348 25.9266L25.2329 26.2994H25.6184V25.7994ZM8.43377 25.7994V26.2994H8.81922L8.91731 25.9266L8.43377 25.7994ZM7.40234 25.7994L6.91507 25.6873L6.77429 26.2994H7.40234V25.7994ZM26.6498 25.7994V26.2994H27.2779L27.1371 25.6873L26.6498 25.7994ZM26.1019 25.6722C25.104 21.8799 21.4476 19.0371 17.0261 19.0371V20.0371C21.0217 20.0371 24.2596 22.6005 25.1348 25.9266L26.1019 25.6722ZM17.0261 19.0371C12.6045 19.0371 8.94815 21.8799 7.95023 25.6722L8.91731 25.9266C9.79256 22.6005 13.0305 20.0371 17.0261 20.0371V19.0371ZM7.40234 26.2994H8.43377V25.2994H7.40234V26.2994ZM7.88962 25.9115C8.78842 22.0036 12.5191 19.0371 17.0261 19.0371V18.0371C12.0872 18.0371 7.92572 21.2931 6.91507 25.6873L7.88962 25.9115ZM17.0261 19.0371C21.533 19.0371 25.2637 22.0036 26.1625 25.9115L27.1371 25.6873C26.1264 21.2931 21.965 18.0371 17.0261 18.0371V19.0371ZM25.6184 26.2994H26.6498V25.2994H25.6184V26.2994Z" fill="#2E3823" mask="url(#path-2-outside-1_2021_127)"/>
<circle cx="17" cy="17" r="16" stroke="#2E3823" stroke-width="2"/>
</svg>
